# xmcd
#
# Track frame offsets:
#	150
#	11862
#	29053
#	43635
#	56812
#	68463
#	101400
#	118962
#	145019
#	171910
#	185606
#	198597
#	220338
#	233674
#	247231
#	259415
#	276847
#	292020
#	309251
#	320890
#
# Disc length: 4520 seconds
#
# Revision: 0
# Processed by: cddbd v1.5.1PL0 Copyright (c) Steve Scherf et al.
# Submitted via: dBpowerAMP V4.0
#
DISCID=4211a614
DTITLE=Hank Williams Jr. - The Bocephus Box - CD 3
DYEAR=1900
DGENRE=
TTITLE0=Keep Your Hands To Yourself - (Live)
TTITLE1=Walk This Way - (Live)
TTITLE2=Heaven Can't Be Found
TTITLE3=Thanks Alot
TTITLE4=All My Rowdy Friends (Have Settled Down) - (Live)
TTITLE5=A Country Boy Can Survive
TTITLE6=You're Gonna Be Sorry Man
TTITLE7=Tuesdays Gone
TTITLE8=Mannish Boy
TTITLE9=Finders Are Keepers
TTITLE10=There's A Tear In My Beer
TTITLE11=Big Mavou
TTITLE12=Man To Man
TTITLE13=Stoned At The Jukebox
TTITLE14=Ain't Nobody's Business
TTITLE15=Lonewolf
TTITLE16=If It Will It Will
TTITLE17=Hotel Whiskey - (With Clint Black)
TTITLE18=Low Down Blues - (Live)
TTITLE19=Naked Woman and Beer
EXTD=
EXTT0=
EXTT1=
EXTT2=
EXTT3=
EXTT4=
EXTT5=
EXTT6=
EXTT7=
EXTT8=
EXTT9=
EXTT10=
EXTT11=
EXTT12=
EXTT13=
EXTT14=
EXTT15=
EXTT16=
EXTT17=
EXTT18=
EXTT19=
PLAYORDER=
